<svg xmlns="http://www.w3.org/2000/svg" viewBox="0 0 512 512">
  <defs>
    <linearGradient id="bg" x1="0" y1="0" x2="1" y2="1">
      <stop offset="0%" stop-color="#f9f9fb"/>
      <stop offset="100%" stop-color="#f0f2f5"/>
    </linearGradient>
  </defs>
  <rect width="512" height="512" rx="112" fill="url(#bg)"/>
  <!-- Location pin -->
  <path d="M256 80c-66 0-120 54-120 120 0 90 120 220 120 220s120-130 120-220c0-66-54-120-120-120z" fill="#d69e2e" opacity="0.9"/>
  <circle cx="256" cy="200" r="44" fill="#fff"/>
  <!-- Sound waves -->
  <path d="M310 180a60 60 0 0 1 0 40" stroke="#fff" stroke-width="6" fill="none" stroke-linecap="round" opacity="0.8"/>
  <path d="M326 168a84 84 0 0 1 0 64" stroke="#fff" stroke-width="5" fill="none" stroke-linecap="round" opacity="0.5"/>
  <path d="M342 156a108 108 0 0 1 0 88" stroke="#fff" stroke-width="4" fill="none" stroke-linecap="round" opacity="0.3"/>
</svg>
